<?xml version="1.0" encoding="UTF-8" standalone="no"?>
<!DOCTYPE svg PUBLIC "-//W3C//DTD SVG 1.1//EN" "http://www.w3.org/Graphics/SVG/1.1/DTD/svg11.dtd">
<svg width="100%" height="100%" viewBox="0 0 1920 1080" version="1.1" xmlns="http://www.w3.org/2000/svg" xmlns:xlink="http://www.w3.org/1999/xlink" xml:space="preserve" xmlns:serif="http://www.serif.com/" style="fill-rule:evenodd;clip-rule:evenodd;stroke-linecap:round;stroke-linejoin:round;stroke-miterlimit:1.5;">
    <g transform="matrix(0.919654,0,0,0.919654,63.818,54.9783)">
        <g>
            <g transform="matrix(1.58502,0,0,1.06555,12.3687,-314.039)">
                <path d="M607,335L859,839L355,839L607,335Z" style="fill:url(#_Linear1);"/>
                <clipPath id="_clip2">
                    <path d="M607,335L859,839L355,839L607,335Z"/>
                </clipPath>
                <g clip-path="url(#_clip2)">
                    <g transform="matrix(2.36082,0,0,8.50117,-801.416,-7288.48)">
                        <rect x="470.132" y="885" width="247.868" height="73.087" style="fill:url(#_Linear3);"/>
                    </g>
                    <g transform="matrix(1.2406,0,0,1.84542,-137.363,-599.541)">
                        <g transform="matrix(1.33612,-2.58665e-17,7.41697e-17,0.117334,-215.768,448.85)">
                            <rect x="436.847" y="450.597" width="347.405" height="42.938" style="fill:white;"/>
                        </g>
                        <g>
                            <g transform="matrix(1.33612,-2.58665e-17,7.41697e-17,0.117334,-215.768,479.61)">
                                <rect x="436.847" y="450.597" width="347.405" height="42.938" style="fill:url(#_Linear4);"/>
                            </g>
                            <g>
                                <g transform="matrix(1.33612,-2.58665e-17,7.41697e-17,0.117334,-215.768,510.37)">
                                    <rect x="436.847" y="450.597" width="347.405" height="42.938" style="fill:url(#_Linear5);"/>
                                </g>
                                <g transform="matrix(1.33612,-2.58665e-17,7.41697e-17,0.117334,-215.768,541.13)">
                                    <rect x="436.847" y="450.597" width="347.405" height="42.938" style="fill:url(#_Linear6);"/>
                                </g>
                                <g transform="matrix(1.33612,-2.58665e-17,7.41697e-17,0.117334,-215.768,571.89)">
                                    <rect x="436.847" y="450.597" width="347.405" height="42.938" style="fill:url(#_Linear7);"/>
                                </g>
                                <g transform="matrix(1.33612,-2.58665e-17,7.41697e-17,0.117334,-215.768,602.65)">
                                    <rect x="436.847" y="450.597" width="347.405" height="42.938" style="fill:url(#_Linear8);"/>
                                </g>
                                <g transform="matrix(1.33612,-2.58665e-17,7.41697e-17,0.117334,-215.768,633.41)">
                                    <rect x="436.847" y="450.597" width="347.405" height="42.938" style="fill:url(#_Linear9);"/>
                                </g>
                                <g transform="matrix(1.33612,-2.58665e-17,7.41697e-17,0.117334,-215.768,664.17)">
                                    <rect x="436.847" y="450.597" width="347.405" height="42.938" style="fill:url(#_Linear10);"/>
                                </g>
                                <g transform="matrix(1.33612,-2.58665e-17,7.41697e-17,0.117334,-215.768,694.93)">
                                    <rect x="436.847" y="450.597" width="347.405" height="42.938" style="fill:url(#_Linear11);"/>
                                </g>
                                <g transform="matrix(1.33612,-2.58665e-17,7.41697e-17,0.117334,-215.768,664.736)">
                                    <rect x="436.847" y="450.597" width="347.405" height="42.938" style="fill:url(#_Linear12);"/>
                                </g>
                                <g transform="matrix(1.33612,-2.58665e-17,7.41697e-17,0.117334,-215.768,634.543)">
                                    <rect x="436.847" y="450.597" width="347.405" height="42.938" style="fill:url(#_Linear13);"/>
                                </g>
                                <g transform="matrix(1.33612,-2.58665e-17,7.41697e-17,0.117334,-215.768,604.349)">
                                    <rect x="436.847" y="450.597" width="347.405" height="42.938" style="fill:url(#_Linear14);"/>
                                </g>
                                <g transform="matrix(1.33612,-2.58665e-17,7.41697e-17,0.117334,-215.768,574.155)">
                                    <rect x="436.847" y="450.597" width="347.405" height="42.938" style="fill:url(#_Linear15);"/>
                                </g>
                                <g transform="matrix(1.33612,-2.58665e-17,7.41697e-17,0.117334,-215.768,543.961)">
                                    <rect x="436.847" y="450.597" width="347.405" height="42.938" style="fill:url(#_Linear16);"/>
                                </g>
                                <g transform="matrix(1.33612,-2.58665e-17,7.41697e-17,0.117334,-215.768,513.767)">
                                    <rect x="436.847" y="450.597" width="347.405" height="42.938" style="fill:url(#_Linear17);"/>
                                </g>
                                <g transform="matrix(1.33612,-2.58665e-17,7.41697e-17,0.117334,-215.768,483.574)">
                                    <rect x="436.847" y="450.597" width="347.405" height="42.938" style="fill:url(#_Linear18);"/>
                                </g>
                            </g>
                        </g>
                        <g transform="matrix(1.33612,-2.58665e-17,7.41697e-17,0.117334,-215.768,735.944)">
                            <rect x="436.847" y="450.597" width="347.405" height="42.938" style="fill:white;"/>
                        </g>
                        <g transform="matrix(1.33612,-2.58665e-17,7.41697e-17,0.117334,-215.768,746.197)">
                            <rect x="436.847" y="450.597" width="347.405" height="42.938" style="fill:white;"/>
                        </g>
                        <g transform="matrix(1.33612,-2.58665e-17,7.41697e-17,0.117334,-215.768,756.45)">
                            <rect x="436.847" y="450.597" width="347.405" height="42.938" style="fill:white;"/>
                        </g>
                    </g>
                    <g>
                        <g transform="matrix(1.03966,0,0,1.54651,71.8164,-414.459)">
                            <path d="M395.751,809.809C395.751,809.809 399.34,622.646 703.407,629.967C703.407,629.967 538.465,731.467 580.6,888.015" style="fill:url(#_Linear19);"/>
                        </g>
                        <g transform="matrix(0.889695,0,0,1.32344,156.008,-243.777)">
                            <path d="M409.345,818.436C409.345,818.436 408.698,762.95 457.559,708.246C495.19,666.115 561.828,623.083 708.679,614.631C708.679,614.631 466.395,710.37 551.155,883.066" style="fill:url(#_Linear20);"/>
                        </g>
                        <g transform="matrix(1.05245,0,0,1.45836,77.6821,-379.667)">
                            <path d="M461.536,858.221C461.515,865.803 461.887,873.616 462.681,881.661L469.803,880.851C469.038,873.092 468.679,865.556 468.698,858.243L461.536,858.221ZM463.956,826.98C462.778,834.513 462.013,842.314 461.698,850.385L468.854,850.706C469.156,842.964 469.89,835.48 471.02,828.252L463.956,826.98ZM471.323,796.593C468.898,803.848 466.883,811.404 465.324,819.263L472.329,820.864C473.82,813.35 475.746,806.126 478.065,799.19L471.323,796.593ZM483.661,768.114C480.029,774.837 476.776,781.882 473.953,789.254L480.578,792.177C483.276,785.131 486.386,778.397 489.857,771.971L483.661,768.114ZM500.464,742.441C495.794,748.428 491.445,754.749 487.473,761.405L493.504,765.552C497.311,759.173 501.48,753.116 505.956,747.377L500.464,742.441ZM520.902,720.088C515.421,725.235 510.191,730.714 505.268,736.53L510.569,741.701C515.307,736.103 520.342,730.829 525.618,725.876L520.902,720.088ZM544.107,701.205C538.037,705.486 532.14,710.097 526.475,715.043L530.994,721.008C536.47,716.227 542.171,711.77 548.04,707.631L544.107,701.205ZM569.308,685.707C566.439,687.26 563.549,688.883 560.646,690.578C557.141,692.626 553.673,694.773 550.252,697.021L553.992,703.579C557.309,701.399 560.671,699.317 564.07,697.332C566.906,695.675 569.73,694.09 572.533,692.573L569.308,685.707ZM595.703,672.943C589.335,675.681 582.659,678.783 575.811,682.285L578.892,689.226C585.596,685.798 592.131,682.761 598.365,680.081L595.703,672.943ZM622.98,662.583C616.83,664.62 609.903,667.114 602.448,670.13L604.973,677.325C612.279,674.37 619.065,671.926 625.092,669.93L622.98,662.583ZM651.131,654.798C651.131,654.798 642.973,656.371 629.919,660.37L631.885,667.764C644.512,663.895 652.401,662.365 652.401,662.365L651.131,654.798Z"/>
                        </g>
                    </g>
                </g>
            </g>
            <g transform="matrix(22.7966,0,0,22.7966,-9429.64,-16481.1)">
                <path d="M440.633,755.019L439.013,757.081L442.013,757.081C445.349,757.081 447.029,755.87 447.029,753.435L447.029,749.055L444.533,749.055L444.533,753.435C444.533,754.587 443.909,755.019 442.013,755.019L440.633,755.019Z" style="fill:url(#_Linear21);fill-rule:nonzero;"/>
                <path d="M451.756,752.259C451.18,752.259 450.904,752.102 450.904,751.694C450.904,751.285 451.18,751.141 451.756,751.141L457.325,751.141L458.92,749.055L451.948,749.055C449.513,749.055 448.506,750.038 448.506,751.55C448.506,752.93 449.453,753.853 451.516,753.853L455.886,753.853C456.474,753.853 456.738,754.021 456.738,754.43C456.738,754.85 456.474,755.019 455.886,755.019L449.813,755.019L448.218,757.081L455.693,757.081C458.141,757.081 459.136,756.098 459.136,754.454C459.136,752.99 458.081,752.259 456.126,752.259L451.756,752.259Z" style="fill:url(#_Linear22);fill-rule:nonzero;"/>
                <path d="M470.417,755.521C469.865,754.957 469.565,754.669 469.289,754.465C470.609,754.202 471.389,753.17 471.389,751.922C471.389,749.63 469.085,749.055 467.261,749.055L462.101,749.055L460.481,751.141L467.465,751.141C468.317,751.141 468.833,751.453 468.833,752.078C468.833,752.63 468.233,752.979 467.465,752.979L460.481,752.979L460.481,757.081L462.965,757.081L462.965,754.957L466.781,754.957L468.569,757.081L471.893,757.081L470.417,755.521Z" style="fill:url(#_Linear23);fill-rule:nonzero;"/>
            </g>
            <g transform="matrix(0.86503,0,0,0.86503,-173.389,98.0798)">
                <g>
                    <g>
                        <g transform="matrix(0.533382,0,0,0.533382,684.501,318.423)">
                            <path d="M539.914,945.287L537.092,966.702L506.38,966.702L494.096,1066.22L467.203,1066.22L479.321,966.702L448.444,966.702L451.1,945.287L539.914,945.287Z" style="fill:url(#_Linear24);fill-rule:nonzero;"/>
                            <path d="M584.154,1021.07L578.593,1066.22L551.7,1066.22L566.475,945.287L603.162,945.287C610.577,945.287 616.899,946.075 622.128,947.652C627.358,949.23 631.632,951.401 634.952,954.168C638.273,956.935 640.694,960.214 642.215,964.004C643.737,967.795 644.498,971.903 644.498,976.33C644.498,980.812 643.903,985.045 642.713,989.03C641.524,993.014 639.794,996.68 637.526,1000.03C635.257,1003.38 632.476,1006.34 629.184,1008.91C625.891,1011.48 622.142,1013.6 617.937,1015.26C619.597,1016.2 621.16,1017.33 622.626,1018.66C624.093,1019.99 625.241,1021.65 626.071,1023.64L643.668,1066.22L619.265,1066.22C616.996,1066.22 615.087,1065.78 613.538,1064.89C611.988,1064.01 610.909,1062.74 610.3,1061.08L597.186,1025.3C596.577,1023.75 595.761,1022.66 594.737,1022.02C593.714,1021.39 592.206,1021.07 590.214,1021.07L584.154,1021.07ZM591.044,965.457L586.479,1002.39L596.356,1002.39C600.229,1002.39 603.522,1001.8 606.233,1000.61C608.945,999.419 611.144,997.828 612.832,995.836C614.52,993.844 615.737,991.52 616.484,988.864C617.231,986.208 617.605,983.413 617.605,980.48C617.605,978.212 617.273,976.15 616.609,974.297C615.945,972.443 614.907,970.866 613.496,969.565C612.085,968.265 610.314,967.255 608.184,966.536C606.053,965.816 603.55,965.457 600.672,965.457L591.044,965.457Z" style="fill:url(#_Linear25);fill-rule:nonzero;"/>
                            <path d="M773.485,1066.22L752.568,1066.22C750.244,1066.22 748.376,1065.68 746.965,1064.6C745.554,1063.53 744.71,1062.1 744.434,1060.33L740.699,1038.58L699.612,1038.58L690.648,1060.33C690.039,1061.88 688.849,1063.25 687.079,1064.44C685.308,1065.63 683.343,1066.22 681.185,1066.22L659.936,1066.22L717.707,945.287L745.43,945.287L773.485,1066.22ZM707.165,1020.16L737.545,1020.16L731.651,985.626C731.153,982.749 730.614,979.83 730.033,976.87C729.452,973.909 728.968,971.212 728.58,968.777C728.137,970.105 727.556,971.613 726.837,973.301C726.118,974.988 725.412,976.634 724.721,978.239C724.029,979.844 723.365,981.338 722.728,982.721C722.092,984.105 721.636,985.128 721.359,985.792L707.165,1020.16Z" style="fill:url(#_Linear26);fill-rule:nonzero;"/>
                            <path d="M789.754,945.287L811.5,945.287C813.825,945.287 815.678,945.84 817.062,946.947C818.445,948.054 819.303,949.465 819.635,951.18L832.251,1017.83C832.749,1020.54 833.344,1023.6 834.036,1027C834.728,1030.41 835.295,1033.85 835.737,1037.34C836.899,1033.85 838.227,1030.43 839.722,1027.09C841.216,1023.74 842.544,1020.65 843.706,1017.83L871.927,951.18C872.259,950.461 872.729,949.741 873.338,949.022C873.947,948.303 874.68,947.666 875.537,947.113C876.395,946.56 877.336,946.117 878.36,945.785C879.383,945.453 880.448,945.287 881.555,945.287L903.468,945.287L844.038,1066.22L819.469,1066.22L789.754,945.287Z" style="fill:url(#_Linear27);fill-rule:nonzero;"/>
                            <path d="M998.092,966.121L953.353,966.121L949.701,995.338L983.981,995.338L981.325,1015.43L947.211,1015.43L943.559,1045.39L988.629,1045.39L985.973,1066.22L913.76,1066.22L928.701,945.287L1000.75,945.287L998.092,966.121Z" style="fill:url(#_Linear28);fill-rule:nonzero;"/>
                            <path d="M1046.07,1044.64L1086.74,1044.64L1084.08,1066.22L1016.35,1066.22L1031.29,945.287L1058.35,945.287L1046.07,1044.64Z" style="fill:url(#_Linear29);fill-rule:nonzero;"/>
                            <path d="M1186.84,969.524C1185.9,970.852 1184.95,971.82 1183.98,972.429C1183.01,973.038 1181.86,973.342 1180.53,973.342C1179.26,973.342 1177.99,972.927 1176.71,972.097C1175.44,971.267 1174.02,970.354 1172.44,969.358C1170.86,968.362 1169.05,967.449 1167,966.619C1164.96,965.789 1162.55,965.374 1159.78,965.374C1157.24,965.374 1155.01,965.733 1153.1,966.453C1151.19,967.172 1149.6,968.168 1148.33,969.441C1147.06,970.714 1146.1,972.208 1145.46,973.923C1144.83,975.638 1144.51,977.52 1144.51,979.567C1144.51,981.781 1145.13,983.634 1146.38,985.128C1147.62,986.623 1149.28,987.937 1151.36,989.071C1153.43,990.206 1155.77,991.243 1158.37,992.184C1160.97,993.124 1163.64,994.148 1166.38,995.255C1169.12,996.362 1171.8,997.634 1174.43,999.073C1177.06,1000.51 1179.41,1002.31 1181.49,1004.47C1183.56,1006.63 1185.22,1009.23 1186.47,1012.27C1187.71,1015.31 1188.34,1018.97 1188.34,1023.23C1188.34,1029.31 1187.28,1035.04 1185.18,1040.41C1183.08,1045.78 1180.06,1050.47 1176.13,1054.48C1172.2,1058.49 1167.43,1061.67 1161.82,1064.02C1156.2,1066.38 1149.88,1067.55 1142.85,1067.55C1139.36,1067.55 1135.86,1067.16 1132.35,1066.39C1128.84,1065.61 1125.46,1064.52 1122.22,1063.11C1118.99,1061.7 1115.98,1060.03 1113.22,1058.09C1110.45,1056.15 1108.1,1053.99 1106.16,1051.61L1115.79,1039C1116.51,1038.06 1117.45,1037.28 1118.61,1036.67C1119.78,1036.07 1120.94,1035.76 1122.1,1035.76C1123.65,1035.76 1125.16,1036.3 1126.62,1037.38C1128.09,1038.46 1129.71,1039.65 1131.48,1040.95C1133.25,1042.25 1135.31,1043.44 1137.66,1044.52C1140.01,1045.6 1142.9,1046.14 1146.34,1046.14C1151.37,1046.14 1155.26,1044.77 1158,1042.03C1160.74,1039.29 1162.11,1035.24 1162.11,1029.87C1162.11,1027.38 1161.48,1025.33 1160.24,1023.73C1158.99,1022.12 1157.36,1020.76 1155.34,1019.66C1153.32,1018.55 1151.01,1017.57 1148.41,1016.71C1145.81,1015.85 1143.15,1014.93 1140.44,1013.93C1137.73,1012.94 1135.08,1011.76 1132.47,1010.4C1129.87,1009.05 1127.56,1007.28 1125.54,1005.09C1123.52,1002.9 1121.89,1000.22 1120.65,997.039C1119.4,993.858 1118.78,989.943 1118.78,985.294C1118.78,979.927 1119.79,974.767 1121.81,969.814C1123.83,964.862 1126.72,960.476 1130.48,956.658C1134.25,952.84 1138.81,949.797 1144.18,947.528C1149.55,945.259 1155.58,944.125 1162.27,944.125C1165.7,944.125 1169.04,944.485 1172.27,945.204C1175.51,945.923 1178.54,946.919 1181.36,948.192C1184.18,949.465 1186.76,950.973 1189.08,952.716C1191.41,954.459 1193.37,956.354 1194.98,958.401L1186.84,969.524Z" style="fill:url(#_Linear30);fill-rule:nonzero;"/>
                            <path d="M1292.42,1025.47L1287.44,1066.22L1260.55,1066.22L1275.32,945.287L1315.33,945.287C1322.52,945.287 1328.68,946.158 1333.8,947.902C1338.92,949.645 1343.12,952.052 1346.41,955.123C1349.71,958.194 1352.13,961.818 1353.68,965.996C1355.23,970.174 1356,974.67 1356,979.484C1356,986.069 1354.99,992.17 1352.97,997.786C1350.95,1003.4 1347.87,1008.26 1343.72,1012.35C1339.57,1016.45 1334.31,1019.66 1327.95,1021.98C1321.58,1024.31 1314.06,1025.47 1305.37,1025.47L1292.42,1025.47ZM1299.89,965.457L1295,1005.13L1308.03,1005.13C1311.9,1005.13 1315.15,1004.57 1317.78,1003.43C1320.41,1002.3 1322.54,1000.69 1324.17,998.617C1325.8,996.541 1326.98,994.065 1327.7,991.188C1328.42,988.31 1328.78,985.156 1328.78,981.725C1328.78,979.346 1328.46,977.16 1327.82,975.168C1327.19,973.176 1326.2,971.461 1324.88,970.022C1323.55,968.583 1321.87,967.463 1319.85,966.66C1317.83,965.858 1315.44,965.457 1312.67,965.457L1299.89,965.457Z" style="fill:url(#_Linear31);fill-rule:nonzero;"/>
                            <path d="M1381.24,945.287L1402.98,945.287C1405.31,945.287 1407.16,945.84 1408.54,946.947C1409.93,948.054 1410.78,949.465 1411.12,951.18L1423.73,1017.83C1424.23,1020.54 1424.83,1023.6 1425.52,1027C1426.21,1030.41 1426.78,1033.85 1427.22,1037.34C1428.38,1033.85 1429.71,1030.43 1431.2,1027.09C1432.7,1023.74 1434.03,1020.65 1435.19,1017.83L1463.41,951.18C1463.74,950.461 1464.21,949.741 1464.82,949.022C1465.43,948.303 1466.16,947.666 1467.02,947.113C1467.88,946.56 1468.82,946.117 1469.84,945.785C1470.87,945.453 1471.93,945.287 1473.04,945.287L1494.95,945.287L1435.52,1066.22L1410.95,1066.22L1381.24,945.287Z" style="fill:url(#_Linear32);fill-rule:nonzero;"/>
                            <path d="M1601.69,945.287L1598.87,966.702L1568.16,966.702L1555.87,1066.22L1528.98,1066.22L1541.1,966.702L1510.22,966.702L1512.88,945.287L1601.69,945.287Z" style="fill:url(#_Linear33);fill-rule:nonzero;"/>
                            <path d="M1691.83,1044.64L1732.51,1044.64L1729.85,1066.22L1662.12,1066.22L1677.06,945.287L1704.12,945.287L1691.83,1044.64Z" style="fill:url(#_Linear34);fill-rule:nonzero;"/>
                            <path d="M1837.92,945.287L1835.1,966.702L1804.39,966.702L1792.1,1066.22L1765.21,1066.22L1777.33,966.702L1746.45,966.702L1749.11,945.287L1837.92,945.287Z" style="fill:url(#_Linear35);fill-rule:nonzero;"/>
                            <path d="M1959.44,997.994C1959.44,1004.58 1958.69,1010.82 1957.19,1016.71C1955.7,1022.6 1953.57,1028.08 1950.8,1033.15C1948.04,1038.21 1944.67,1042.77 1940.72,1046.84C1936.76,1050.91 1932.34,1054.38 1927.44,1057.26C1922.54,1060.14 1917.2,1062.35 1911.42,1063.9C1905.64,1065.45 1899.56,1066.22 1893.2,1066.22L1849.7,1066.22L1864.65,945.287L1908.14,945.287C1916.05,945.287 1923.18,946.629 1929.51,949.313C1935.85,951.996 1941.23,955.69 1945.66,960.393C1950.08,965.097 1953.49,970.658 1955.87,977.077C1958.25,983.496 1959.44,990.468 1959.44,997.994ZM1931.71,998.658C1931.71,993.733 1931.14,989.265 1930.01,985.253C1928.88,981.241 1927.19,977.824 1924.95,975.002C1922.71,972.18 1919.95,969.994 1916.69,968.445C1913.42,966.895 1909.69,966.121 1905.48,966.121L1889.22,966.121L1879.59,1045.39L1895.86,1045.39C1901.39,1045.39 1906.37,1044.3 1910.8,1042.11C1915.22,1039.92 1918.99,1036.81 1922.08,1032.77C1925.18,1028.73 1927.56,1023.84 1929.22,1018.08C1930.88,1012.33 1931.71,1005.85 1931.71,998.658Z" style="fill:url(#_Linear36);fill-rule:nonzero;"/>
                        </g>
                        <g transform="matrix(1,0,0,1,904.375,-174.784)">
                            <path d="M54.254,977.629L884.341,977.629" style="fill:none;stroke:black;stroke-width:7.3px;"/>
                        </g>
                        <g transform="matrix(1,0,0,1,789.3,-69.7152)">
                            <path d="M75.92,977.629L897.303,977.629" style="fill:none;stroke:black;stroke-width:7.3px;"/>
                        </g>
                    </g>
                </g>
            </g>
            <g transform="matrix(1.69044,0,0,1.69044,-848.269,-627.605)">
                <g transform="matrix(74.2918,0,0,74.2918,598.938,969.258)">
                    <path d="M0.471,-0.583C0.465,-0.575 0.46,-0.569 0.454,-0.565C0.448,-0.561 0.441,-0.56 0.433,-0.56C0.425,-0.56 0.418,-0.562 0.41,-0.567C0.402,-0.572 0.394,-0.578 0.384,-0.584C0.375,-0.59 0.364,-0.595 0.352,-0.6C0.339,-0.605 0.325,-0.608 0.308,-0.608C0.293,-0.608 0.279,-0.605 0.268,-0.601C0.256,-0.597 0.247,-0.591 0.239,-0.583C0.231,-0.575 0.226,-0.566 0.222,-0.556C0.218,-0.546 0.216,-0.534 0.216,-0.522C0.216,-0.509 0.22,-0.498 0.227,-0.489C0.235,-0.48 0.245,-0.472 0.257,-0.465C0.27,-0.458 0.284,-0.452 0.3,-0.446C0.315,-0.44 0.331,-0.434 0.348,-0.428C0.364,-0.421 0.38,-0.413 0.396,-0.405C0.412,-0.396 0.426,-0.385 0.439,-0.372C0.451,-0.359 0.461,-0.343 0.469,-0.325C0.476,-0.307 0.48,-0.285 0.48,-0.259C0.48,-0.222 0.474,-0.188 0.461,-0.156C0.448,-0.123 0.43,-0.095 0.406,-0.071C0.383,-0.047 0.354,-0.027 0.32,-0.013C0.286,0.001 0.248,0.008 0.206,0.008C0.185,0.008 0.164,0.006 0.143,0.001C0.122,-0.004 0.101,-0.01 0.082,-0.019C0.062,-0.027 0.044,-0.037 0.028,-0.049C0.011,-0.061 -0.003,-0.074 -0.015,-0.088L0.043,-0.164C0.047,-0.17 0.053,-0.174 0.06,-0.178C0.067,-0.182 0.074,-0.184 0.081,-0.184C0.09,-0.184 0.099,-0.18 0.108,-0.174C0.117,-0.167 0.127,-0.16 0.138,-0.152C0.148,-0.144 0.161,-0.137 0.175,-0.131C0.189,-0.124 0.206,-0.121 0.227,-0.121C0.257,-0.121 0.281,-0.129 0.297,-0.146C0.314,-0.162 0.322,-0.187 0.322,-0.219C0.322,-0.234 0.318,-0.246 0.311,-0.256C0.303,-0.266 0.293,-0.274 0.281,-0.281C0.269,-0.287 0.255,-0.293 0.239,-0.298C0.224,-0.303 0.208,-0.309 0.192,-0.315C0.175,-0.321 0.159,-0.328 0.143,-0.336C0.128,-0.344 0.114,-0.355 0.102,-0.368C0.09,-0.381 0.08,-0.398 0.072,-0.417C0.065,-0.436 0.061,-0.46 0.061,-0.488C0.061,-0.52 0.067,-0.551 0.079,-0.581C0.091,-0.611 0.109,-0.637 0.132,-0.66C0.154,-0.683 0.182,-0.701 0.214,-0.715C0.246,-0.729 0.283,-0.736 0.323,-0.736C0.344,-0.736 0.364,-0.733 0.383,-0.729C0.403,-0.725 0.421,-0.719 0.438,-0.711C0.455,-0.703 0.47,-0.694 0.485,-0.684C0.499,-0.673 0.51,-0.662 0.52,-0.65L0.471,-0.583Z" style="fill:rgb(146,0,0);fill-rule:nonzero;"/>
                </g>
                <g transform="matrix(74.2918,0,0,74.2918,643.513,969.258)">
                    <path d="M0.415,-0.32C0.422,-0.299 0.428,-0.278 0.433,-0.256C0.438,-0.267 0.444,-0.277 0.45,-0.288C0.456,-0.299 0.462,-0.309 0.468,-0.32L0.691,-0.704C0.698,-0.715 0.706,-0.722 0.716,-0.725C0.726,-0.727 0.736,-0.729 0.745,-0.729L0.873,-0.729L0.783,0L0.64,0L0.691,-0.424C0.692,-0.433 0.694,-0.443 0.696,-0.454C0.698,-0.465 0.7,-0.476 0.703,-0.488L0.484,-0.112C0.477,-0.1 0.469,-0.092 0.458,-0.086C0.447,-0.081 0.436,-0.078 0.423,-0.078L0.401,-0.078C0.388,-0.078 0.377,-0.081 0.368,-0.086C0.358,-0.092 0.352,-0.101 0.348,-0.112L0.22,-0.489C0.219,-0.477 0.219,-0.466 0.218,-0.456C0.218,-0.445 0.217,-0.435 0.216,-0.427L0.166,0L0.022,0L0.112,-0.728L0.255,-0.728C0.26,-0.728 0.265,-0.727 0.269,-0.726C0.273,-0.724 0.277,-0.722 0.28,-0.718C0.282,-0.715 0.285,-0.71 0.287,-0.704L0.415,-0.32Z" style="fill:rgb(146,0,0);fill-rule:nonzero;"/>
                </g>
                <g transform="matrix(74.2918,0,0,74.2918,715.279,969.258)">
                    <path d="M0.2,0L0.036,0L0.125,-0.729L0.289,-0.729L0.2,0Z" style="fill:rgb(146,0,0);fill-rule:nonzero;"/>
                </g>
                <g transform="matrix(74.2918,0,0,74.2918,744.699,969.258)">
                    <path d="M0.201,-0.13L0.446,-0.13L0.43,0L0.022,0L0.112,-0.729L0.275,-0.729L0.201,-0.13Z" style="fill:rgb(146,0,0);fill-rule:nonzero;"/>
                </g>
                <g transform="matrix(74.2918,0,0,74.2918,787.639,969.258)">
                    <path d="M0.53,-0.603L0.261,-0.603L0.238,-0.427L0.445,-0.427L0.429,-0.306L0.224,-0.306L0.202,-0.126L0.473,-0.126L0.457,0L0.022,0L0.112,-0.729L0.546,-0.729L0.53,-0.603Z" style="fill:rgb(146,0,0);fill-rule:nonzero;"/>
                </g>
                <g transform="matrix(74.2918,0,0,74.2918,855.319,969.258)">
                    <path d="M0.064,-0.729L0.192,-0.729C0.206,-0.729 0.217,-0.725 0.226,-0.719C0.234,-0.712 0.239,-0.704 0.241,-0.693L0.292,-0.301C0.293,-0.291 0.294,-0.282 0.295,-0.272C0.296,-0.262 0.296,-0.253 0.297,-0.245C0.298,-0.235 0.298,-0.226 0.298,-0.217C0.303,-0.233 0.308,-0.247 0.314,-0.261C0.319,-0.275 0.324,-0.288 0.329,-0.301L0.478,-0.693C0.482,-0.702 0.489,-0.71 0.499,-0.718C0.509,-0.725 0.521,-0.729 0.535,-0.729L0.573,-0.729C0.587,-0.729 0.598,-0.725 0.607,-0.719C0.616,-0.712 0.621,-0.704 0.623,-0.693L0.679,-0.301C0.681,-0.289 0.682,-0.276 0.684,-0.262C0.686,-0.248 0.688,-0.234 0.689,-0.219C0.693,-0.234 0.698,-0.248 0.702,-0.262C0.706,-0.276 0.711,-0.289 0.715,-0.301L0.859,-0.693C0.862,-0.702 0.869,-0.711 0.88,-0.718C0.891,-0.725 0.903,-0.729 0.917,-0.729L1.046,-0.729L0.749,0L0.601,0L0.534,-0.46C0.533,-0.467 0.532,-0.475 0.531,-0.484C0.529,-0.493 0.528,-0.502 0.527,-0.512C0.523,-0.502 0.52,-0.493 0.516,-0.484C0.513,-0.475 0.51,-0.467 0.507,-0.46L0.329,0L0.182,0L0.064,-0.729Z" style="fill:rgb(146,0,0);fill-rule:nonzero;"/>
                </g>
                <g transform="matrix(74.2918,0,0,74.2918,936.297,969.258)">
                    <path d="M0.2,0L0.036,0L0.125,-0.729L0.289,-0.729L0.2,0Z" style="fill:rgb(146,0,0);fill-rule:nonzero;"/>
                </g>
                <g transform="matrix(74.2918,0,0,74.2918,965.717,969.258)">
                    <path d="M0.603,-0.729L0.586,-0.6L0.401,-0.6L0.327,0L0.165,0L0.238,-0.6L0.052,-0.6L0.068,-0.729L0.603,-0.729Z" style="fill:rgb(146,0,0);fill-rule:nonzero;"/>
                </g>
                <g transform="matrix(74.2918,0,0,74.2918,1014.15,969.258)">
                    <path d="M0.613,0L0.449,0L0.487,-0.31L0.224,-0.31L0.186,0L0.022,0L0.112,-0.729L0.276,-0.729L0.238,-0.421L0.501,-0.421L0.539,-0.729L0.703,-0.729L0.613,0Z" style="fill:rgb(146,0,0);fill-rule:nonzero;"/>
                </g>
                <g transform="matrix(74.2918,0,0,74.2918,1095.06,969.258)">
                    <path d="M0.53,-0.603L0.261,-0.603L0.238,-0.427L0.445,-0.427L0.429,-0.306L0.224,-0.306L0.202,-0.126L0.473,-0.126L0.457,0L0.022,0L0.112,-0.729L0.546,-0.729L0.53,-0.603Z" style="fill:rgb(146,0,0);fill-rule:nonzero;"/>
                </g>
                <g transform="matrix(74.2918,0,0,74.2918,1140.97,969.258)">
                    <path d="M0.059,-0.729L0.19,-0.729C0.204,-0.729 0.215,-0.725 0.224,-0.719C0.232,-0.712 0.237,-0.703 0.239,-0.693L0.315,-0.292C0.318,-0.275 0.322,-0.257 0.326,-0.236C0.33,-0.216 0.333,-0.195 0.336,-0.174C0.343,-0.195 0.351,-0.216 0.36,-0.236C0.369,-0.256 0.377,-0.275 0.384,-0.292L0.554,-0.693C0.556,-0.697 0.559,-0.702 0.563,-0.706C0.566,-0.71 0.571,-0.714 0.576,-0.718C0.581,-0.721 0.587,-0.724 0.593,-0.726C0.599,-0.728 0.605,-0.729 0.612,-0.729L0.744,-0.729L0.386,0L0.238,0L0.059,-0.729Z" style="fill:rgb(146,0,0);fill-rule:nonzero;"/>
                </g>
                <g transform="matrix(74.2918,0,0,74.2918,1199.22,969.258)">
                    <path d="M0.53,-0.603L0.261,-0.603L0.238,-0.427L0.445,-0.427L0.429,-0.306L0.224,-0.306L0.202,-0.126L0.473,-0.126L0.457,0L0.022,0L0.112,-0.729L0.546,-0.729L0.53,-0.603Z" style="fill:rgb(146,0,0);fill-rule:nonzero;"/>
                </g>
                <g transform="matrix(74.2918,0,0,74.2918,1245.13,969.258)">
                    <path d="M0.218,-0.272L0.184,0L0.022,0L0.111,-0.729L0.332,-0.729C0.377,-0.729 0.415,-0.724 0.446,-0.714C0.478,-0.705 0.503,-0.692 0.524,-0.675C0.544,-0.658 0.558,-0.639 0.567,-0.616C0.576,-0.593 0.581,-0.568 0.581,-0.542C0.581,-0.515 0.577,-0.489 0.57,-0.465C0.563,-0.441 0.553,-0.419 0.539,-0.399C0.525,-0.379 0.509,-0.361 0.489,-0.345C0.469,-0.33 0.446,-0.317 0.421,-0.307C0.431,-0.301 0.44,-0.295 0.449,-0.286C0.458,-0.279 0.465,-0.269 0.47,-0.257L0.576,0L0.429,0C0.415,0 0.404,-0.003 0.395,-0.008C0.385,-0.013 0.379,-0.021 0.375,-0.031L0.296,-0.247C0.292,-0.256 0.287,-0.262 0.281,-0.266C0.275,-0.27 0.266,-0.272 0.254,-0.272L0.218,-0.272ZM0.259,-0.607L0.232,-0.385L0.291,-0.385C0.314,-0.385 0.334,-0.388 0.35,-0.395C0.367,-0.402 0.38,-0.412 0.39,-0.424C0.4,-0.436 0.408,-0.45 0.412,-0.466C0.417,-0.482 0.419,-0.499 0.419,-0.517C0.419,-0.53 0.417,-0.543 0.413,-0.554C0.409,-0.565 0.403,-0.574 0.394,-0.582C0.386,-0.59 0.375,-0.596 0.362,-0.601C0.349,-0.605 0.334,-0.607 0.317,-0.607L0.259,-0.607Z" style="fill:rgb(146,0,0);fill-rule:nonzero;"/>
                </g>
                <g transform="matrix(74.2918,0,0,74.2918,1298.17,969.258)">
                    <path d="M0.4,-0.279L0.365,0L0.202,0L0.236,-0.278L0.049,-0.729L0.194,-0.729C0.208,-0.729 0.219,-0.725 0.227,-0.719C0.235,-0.712 0.24,-0.704 0.244,-0.693L0.314,-0.472C0.319,-0.458 0.323,-0.444 0.327,-0.43C0.331,-0.416 0.334,-0.403 0.337,-0.391C0.343,-0.403 0.35,-0.416 0.358,-0.43C0.365,-0.443 0.373,-0.458 0.382,-0.472L0.506,-0.693C0.511,-0.702 0.518,-0.71 0.528,-0.718C0.538,-0.725 0.549,-0.729 0.563,-0.729L0.698,-0.729L0.4,-0.279Z" style="fill:rgb(146,0,0);fill-rule:nonzero;"/>
                </g>
                <g transform="matrix(74.2918,0,0,74.2918,1374.02,969.258)">
                    <path d="M0.415,-0.32C0.422,-0.299 0.428,-0.278 0.433,-0.256C0.438,-0.267 0.444,-0.277 0.45,-0.288C0.456,-0.299 0.462,-0.309 0.468,-0.32L0.691,-0.704C0.698,-0.715 0.706,-0.722 0.716,-0.725C0.726,-0.727 0.736,-0.729 0.745,-0.729L0.873,-0.729L0.783,0L0.64,0L0.691,-0.424C0.692,-0.433 0.694,-0.443 0.696,-0.454C0.698,-0.465 0.7,-0.476 0.703,-0.488L0.484,-0.112C0.477,-0.1 0.469,-0.092 0.458,-0.086C0.447,-0.081 0.436,-0.078 0.423,-0.078L0.401,-0.078C0.388,-0.078 0.377,-0.081 0.368,-0.086C0.358,-0.092 0.352,-0.101 0.348,-0.112L0.22,-0.489C0.219,-0.477 0.219,-0.466 0.218,-0.456C0.218,-0.445 0.217,-0.435 0.216,-0.427L0.166,0L0.022,0L0.112,-0.728L0.255,-0.728C0.26,-0.728 0.265,-0.727 0.269,-0.726C0.273,-0.724 0.277,-0.722 0.28,-0.718C0.282,-0.715 0.285,-0.71 0.287,-0.704L0.415,-0.32Z" style="fill:rgb(146,0,0);fill-rule:nonzero;"/>
                </g>
                <g transform="matrix(74.2918,0,0,74.2918,1445.79,969.258)">
                    <path d="M0.2,0L0.036,0L0.125,-0.729L0.289,-0.729L0.2,0Z" style="fill:rgb(146,0,0);fill-rule:nonzero;"/>
                </g>
                <g transform="matrix(74.2918,0,0,74.2918,1475.21,969.258)">
                    <path d="M0.201,-0.13L0.446,-0.13L0.43,0L0.022,0L0.112,-0.729L0.275,-0.729L0.201,-0.13Z" style="fill:rgb(146,0,0);fill-rule:nonzero;"/>
                </g>
                <g transform="matrix(74.2918,0,0,74.2918,1518.15,969.258)">
                    <path d="M0.53,-0.603L0.261,-0.603L0.238,-0.427L0.445,-0.427L0.429,-0.306L0.224,-0.306L0.202,-0.126L0.473,-0.126L0.457,0L0.022,0L0.112,-0.729L0.546,-0.729L0.53,-0.603Z" style="fill:rgb(146,0,0);fill-rule:nonzero;"/>
                </g>
            </g>
        </g>
    </g>
    <defs>
        <linearGradient id="_Linear1" x1="0" y1="0" x2="1" y2="0" gradientUnits="userSpaceOnUse" gradientTransform="matrix(1.90923e-14,-463.808,311.8,2.84e-14,708.482,810.613)"><stop offset="0" style="stop-color:white;stop-opacity:1"/><stop offset="1" style="stop-color:rgb(183,183,183);stop-opacity:1"/></linearGradient>
        <linearGradient id="_Linear3" x1="0" y1="0" x2="1" y2="0" gradientUnits="userSpaceOnUse" gradientTransform="matrix(193.561,47.9013,-115.958,79.9584,522.061,915.485)"><stop offset="0" style="stop-color:rgb(238,0,0);stop-opacity:1"/><stop offset="1" style="stop-color:rgb(92,0,0);stop-opacity:1"/></linearGradient>
        <linearGradient id="_Linear4" x1="0" y1="0" x2="1" y2="0" gradientUnits="userSpaceOnUse" gradientTransform="matrix(6.06776e-15,-99.6538,8.7513,8.03127e-15,518.486,2359.41)"><stop offset="0" style="stop-color:white;stop-opacity:1"/><stop offset="1" style="stop-color:rgb(166,166,166);stop-opacity:1"/></linearGradient>
        <linearGradient id="_Linear5" x1="0" y1="0" x2="1" y2="0" gradientUnits="userSpaceOnUse" gradientTransform="matrix(6.06776e-15,-99.6538,8.7513,8.03127e-15,518.486,2097.25)"><stop offset="0" style="stop-color:white;stop-opacity:1"/><stop offset="1" style="stop-color:rgb(166,166,166);stop-opacity:1"/></linearGradient>
        <linearGradient id="_Linear6" x1="0" y1="0" x2="1" y2="0" gradientUnits="userSpaceOnUse" gradientTransform="matrix(6.06776e-15,-99.6538,8.7513,8.03127e-15,518.486,1835.09)"><stop offset="0" style="stop-color:white;stop-opacity:1"/><stop offset="1" style="stop-color:rgb(166,166,166);stop-opacity:1"/></linearGradient>
        <linearGradient id="_Linear7" x1="0" y1="0" x2="1" y2="0" gradientUnits="userSpaceOnUse" gradientTransform="matrix(6.06776e-15,-99.6538,8.7513,8.03127e-15,518.486,1572.93)"><stop offset="0" style="stop-color:white;stop-opacity:1"/><stop offset="1" style="stop-color:rgb(166,166,166);stop-opacity:1"/></linearGradient>
        <linearGradient id="_Linear8" x1="0" y1="0" x2="1" y2="0" gradientUnits="userSpaceOnUse" gradientTransform="matrix(6.06776e-15,-99.6538,8.7513,8.03127e-15,518.486,1310.78)"><stop offset="0" style="stop-color:white;stop-opacity:1"/><stop offset="1" style="stop-color:rgb(166,166,166);stop-opacity:1"/></linearGradient>
        <linearGradient id="_Linear9" x1="0" y1="0" x2="1" y2="0" gradientUnits="userSpaceOnUse" gradientTransform="matrix(6.06776e-15,-99.6538,8.7513,8.03127e-15,518.486,1048.62)"><stop offset="0" style="stop-color:white;stop-opacity:1"/><stop offset="1" style="stop-color:rgb(166,166,166);stop-opacity:1"/></linearGradient>
        <linearGradient id="_Linear10" x1="0" y1="0" x2="1" y2="0" gradientUnits="userSpaceOnUse" gradientTransform="matrix(6.06776e-15,-99.6538,8.7513,8.03127e-15,518.486,786.461)"><stop offset="0" style="stop-color:white;stop-opacity:1"/><stop offset="1" style="stop-color:rgb(166,166,166);stop-opacity:1"/></linearGradient>
        <linearGradient id="_Linear11" x1="0" y1="0" x2="1" y2="0" gradientUnits="userSpaceOnUse" gradientTransform="matrix(6.06776e-15,-99.6538,8.7513,8.03127e-15,518.486,524.304)"><stop offset="0" style="stop-color:white;stop-opacity:1"/><stop offset="1" style="stop-color:rgb(166,166,166);stop-opacity:1"/></linearGradient>
        <linearGradient id="_Linear12" x1="0" y1="0" x2="1" y2="0" gradientUnits="userSpaceOnUse" gradientTransform="matrix(6.06776e-15,-99.6538,8.7513,8.03127e-15,518.486,524.304)"><stop offset="0" style="stop-color:white;stop-opacity:1"/><stop offset="1" style="stop-color:rgb(166,166,166);stop-opacity:1"/></linearGradient>
        <linearGradient id="_Linear13" x1="0" y1="0" x2="1" y2="0" gradientUnits="userSpaceOnUse" gradientTransform="matrix(6.06776e-15,-99.6538,8.7513,8.03127e-15,518.486,524.304)"><stop offset="0" style="stop-color:white;stop-opacity:1"/><stop offset="1" style="stop-color:rgb(166,166,166);stop-opacity:1"/></linearGradient>
        <linearGradient id="_Linear14" x1="0" y1="0" x2="1" y2="0" gradientUnits="userSpaceOnUse" gradientTransform="matrix(6.06776e-15,-99.6538,8.7513,8.03127e-15,518.486,524.304)"><stop offset="0" style="stop-color:white;stop-opacity:1"/><stop offset="1" style="stop-color:rgb(166,166,166);stop-opacity:1"/></linearGradient>
        <linearGradient id="_Linear15" x1="0" y1="0" x2="1" y2="0" gradientUnits="userSpaceOnUse" gradientTransform="matrix(6.06776e-15,-99.6538,8.7513,8.03127e-15,518.486,524.304)"><stop offset="0" style="stop-color:white;stop-opacity:1"/><stop offset="1" style="stop-color:rgb(166,166,166);stop-opacity:1"/></linearGradient>
        <linearGradient id="_Linear16" x1="0" y1="0" x2="1" y2="0" gradientUnits="userSpaceOnUse" gradientTransform="matrix(6.06776e-15,-99.6538,8.7513,8.03127e-15,518.486,524.304)"><stop offset="0" style="stop-color:white;stop-opacity:1"/><stop offset="1" style="stop-color:rgb(166,166,166);stop-opacity:1"/></linearGradient>
        <linearGradient id="_Linear17" x1="0" y1="0" x2="1" y2="0" gradientUnits="userSpaceOnUse" gradientTransform="matrix(6.06776e-15,-99.6538,8.7513,8.03127e-15,518.486,524.304)"><stop offset="0" style="stop-color:white;stop-opacity:1"/><stop offset="1" style="stop-color:rgb(166,166,166);stop-opacity:1"/></linearGradient>
        <linearGradient id="_Linear18" x1="0" y1="0" x2="1" y2="0" gradientUnits="userSpaceOnUse" gradientTransform="matrix(6.06776e-15,-99.6538,8.7513,8.03127e-15,518.486,524.304)"><stop offset="0" style="stop-color:white;stop-opacity:1"/><stop offset="1" style="stop-color:rgb(166,166,166);stop-opacity:1"/></linearGradient>
        <linearGradient id="_Linear19" x1="0" y1="0" x2="1" y2="0" gradientUnits="userSpaceOnUse" gradientTransform="matrix(1.16453e-14,-190.182,190.182,1.16453e-14,556.625,801.312)"><stop offset="0" style="stop-color:rgb(10,0,0);stop-opacity:1"/><stop offset="1" style="stop-color:rgb(30,30,30);stop-opacity:1"/></linearGradient>
        <linearGradient id="_Linear20" x1="0" y1="0" x2="1" y2="0" gradientUnits="userSpaceOnUse" gradientTransform="matrix(1.79283e-14,-292.792,292.792,1.79283e-14,521.046,847.419)"><stop offset="0" style="stop-color:white;stop-opacity:1"/><stop offset="1" style="stop-color:rgb(179,179,179);stop-opacity:1"/></linearGradient>
        <linearGradient id="_Linear21" x1="0" y1="0" x2="1" y2="0" gradientUnits="userSpaceOnUse" gradientTransform="matrix(5.41548e-16,8.84415,-8.84415,5.41548e-16,448.665,748.412)"><stop offset="0" style="stop-color:rgb(245,0,0);stop-opacity:1"/><stop offset="0.44" style="stop-color:rgb(172,0,0);stop-opacity:1"/><stop offset="1" style="stop-color:black;stop-opacity:1"/></linearGradient>
        <linearGradient id="_Linear22" x1="0" y1="0" x2="1" y2="0" gradientUnits="userSpaceOnUse" gradientTransform="matrix(5.41548e-16,8.84415,-8.84415,5.41548e-16,448.665,748.412)"><stop offset="0" style="stop-color:rgb(245,0,0);stop-opacity:1"/><stop offset="0.44" style="stop-color:rgb(172,0,0);stop-opacity:1"/><stop offset="1" style="stop-color:black;stop-opacity:1"/></linearGradient>
        <linearGradient id="_Linear23" x1="0" y1="0" x2="1" y2="0" gradientUnits="userSpaceOnUse" gradientTransform="matrix(5.41548e-16,8.84415,-8.84415,5.41548e-16,448.665,748.412)"><stop offset="0" style="stop-color:rgb(245,0,0);stop-opacity:1"/><stop offset="0.44" style="stop-color:rgb(172,0,0);stop-opacity:1"/><stop offset="1" style="stop-color:black;stop-opacity:1"/></linearGradient>
        <linearGradient id="_Linear24" x1="0" y1="0" x2="1" y2="0" gradientUnits="userSpaceOnUse" gradientTransform="matrix(3.03228e-14,-495.208,495.208,3.03228e-14,1228.85,1229.33)"><stop offset="0" style="stop-color:black;stop-opacity:1"/><stop offset="0.52" style="stop-color:rgb(187,36,36);stop-opacity:1"/><stop offset="1" style="stop-color:rgb(255,49,49);stop-opacity:1"/></linearGradient>
        <linearGradient id="_Linear25" x1="0" y1="0" x2="1" y2="0" gradientUnits="userSpaceOnUse" gradientTransform="matrix(3.03228e-14,-495.208,495.208,3.03228e-14,1228.85,1229.33)"><stop offset="0" style="stop-color:black;stop-opacity:1"/><stop offset="0.52" style="stop-color:rgb(187,36,36);stop-opacity:1"/><stop offset="1" style="stop-color:rgb(255,49,49);stop-opacity:1"/></linearGradient>
        <linearGradient id="_Linear26" x1="0" y1="0" x2="1" y2="0" gradientUnits="userSpaceOnUse" gradientTransform="matrix(3.03228e-14,-495.208,495.208,3.03228e-14,1228.85,1229.33)"><stop offset="0" style="stop-color:black;stop-opacity:1"/><stop offset="0.52" style="stop-color:rgb(187,36,36);stop-opacity:1"/><stop offset="1" style="stop-color:rgb(255,49,49);stop-opacity:1"/></linearGradient>
        <linearGradient id="_Linear27" x1="0" y1="0" x2="1" y2="0" gradientUnits="userSpaceOnUse" gradientTransform="matrix(3.03228e-14,-495.208,495.208,3.03228e-14,1228.85,1229.33)"><stop offset="0" style="stop-color:black;stop-opacity:1"/><stop offset="0.52" style="stop-color:rgb(187,36,36);stop-opacity:1"/><stop offset="1" style="stop-color:rgb(255,49,49);stop-opacity:1"/></linearGradient>
        <linearGradient id="_Linear28" x1="0" y1="0" x2="1" y2="0" gradientUnits="userSpaceOnUse" gradientTransform="matrix(3.03228e-14,-495.208,495.208,3.03228e-14,1228.85,1229.33)"><stop offset="0" style="stop-color:black;stop-opacity:1"/><stop offset="0.52" style="stop-color:rgb(187,36,36);stop-opacity:1"/><stop offset="1" style="stop-color:rgb(255,49,49);stop-opacity:1"/></linearGradient>
        <linearGradient id="_Linear29" x1="0" y1="0" x2="1" y2="0" gradientUnits="userSpaceOnUse" gradientTransform="matrix(3.03228e-14,-495.208,495.208,3.03228e-14,1228.85,1229.33)"><stop offset="0" style="stop-color:black;stop-opacity:1"/><stop offset="0.52" style="stop-color:rgb(187,36,36);stop-opacity:1"/><stop offset="1" style="stop-color:rgb(255,49,49);stop-opacity:1"/></linearGradient>
        <linearGradient id="_Linear30" x1="0" y1="0" x2="1" y2="0" gradientUnits="userSpaceOnUse" gradientTransform="matrix(3.03228e-14,-495.208,495.208,3.03228e-14,1228.85,1229.33)"><stop offset="0" style="stop-color:black;stop-opacity:1"/><stop offset="0.52" style="stop-color:rgb(187,36,36);stop-opacity:1"/><stop offset="1" style="stop-color:rgb(255,49,49);stop-opacity:1"/></linearGradient>
        <linearGradient id="_Linear31" x1="0" y1="0" x2="1" y2="0" gradientUnits="userSpaceOnUse" gradientTransform="matrix(3.03228e-14,-495.208,495.208,3.03228e-14,1228.85,1229.33)"><stop offset="0" style="stop-color:black;stop-opacity:1"/><stop offset="0.52" style="stop-color:rgb(187,36,36);stop-opacity:1"/><stop offset="1" style="stop-color:rgb(255,49,49);stop-opacity:1"/></linearGradient>
        <linearGradient id="_Linear32" x1="0" y1="0" x2="1" y2="0" gradientUnits="userSpaceOnUse" gradientTransform="matrix(3.03228e-14,-495.208,495.208,3.03228e-14,1228.85,1229.33)"><stop offset="0" style="stop-color:black;stop-opacity:1"/><stop offset="0.52" style="stop-color:rgb(187,36,36);stop-opacity:1"/><stop offset="1" style="stop-color:rgb(255,49,49);stop-opacity:1"/></linearGradient>
        <linearGradient id="_Linear33" x1="0" y1="0" x2="1" y2="0" gradientUnits="userSpaceOnUse" gradientTransform="matrix(3.03228e-14,-495.208,495.208,3.03228e-14,1228.85,1229.33)"><stop offset="0" style="stop-color:black;stop-opacity:1"/><stop offset="0.52" style="stop-color:rgb(187,36,36);stop-opacity:1"/><stop offset="1" style="stop-color:rgb(255,49,49);stop-opacity:1"/></linearGradient>
        <linearGradient id="_Linear34" x1="0" y1="0" x2="1" y2="0" gradientUnits="userSpaceOnUse" gradientTransform="matrix(3.03228e-14,-495.208,495.208,3.03228e-14,1228.85,1229.33)"><stop offset="0" style="stop-color:black;stop-opacity:1"/><stop offset="0.52" style="stop-color:rgb(187,36,36);stop-opacity:1"/><stop offset="1" style="stop-color:rgb(255,49,49);stop-opacity:1"/></linearGradient>
        <linearGradient id="_Linear35" x1="0" y1="0" x2="1" y2="0" gradientUnits="userSpaceOnUse" gradientTransform="matrix(3.03228e-14,-495.208,495.208,3.03228e-14,1228.85,1229.33)"><stop offset="0" style="stop-color:black;stop-opacity:1"/><stop offset="0.52" style="stop-color:rgb(187,36,36);stop-opacity:1"/><stop offset="1" style="stop-color:rgb(255,49,49);stop-opacity:1"/></linearGradient>
        <linearGradient id="_Linear36" x1="0" y1="0" x2="1" y2="0" gradientUnits="userSpaceOnUse" gradientTransform="matrix(3.03228e-14,-495.208,495.208,3.03228e-14,1228.85,1229.33)"><stop offset="0" style="stop-color:black;stop-opacity:1"/><stop offset="0.52" style="stop-color:rgb(187,36,36);stop-opacity:1"/><stop offset="1" style="stop-color:rgb(255,49,49);stop-opacity:1"/></linearGradient>
    </defs>
</svg>
